<mxfile host="app.diagrams.net" agent="Mozilla/5.0 (X11; Linux x86_64) AppleWebKit/537.36 (KHTML, like Gecko) Chrome/141.0.0.0 Safari/537.36" version="28.2.5">
  <diagram name="PÃ¡gina-1" id="mBNOUrHe9YcUr39tz25Z">
    <mxGraphModel dx="1426" dy="679" grid="1" gridSize="10" guides="1" tooltips="1" connect="1" arrows="1" fold="1" page="1" pageScale="1" pageWidth="827" pageHeight="1169" math="0" shadow="0">
      <root>
        <mxCell id="0" />
        <mxCell id="1" parent="0" />
        <mxCell id="FpeiSymFSRnBGDmZxePF-1" value="VISTA" style="rounded=0;whiteSpace=wrap;html=1;" vertex="1" parent="1">
          <mxGeometry x="120" y="20" width="120" height="60" as="geometry" />
        </mxCell>
        <mxCell id="FpeiSymFSRnBGDmZxePF-2" value="CONTROLADOR" style="rounded=0;whiteSpace=wrap;html=1;" vertex="1" parent="1">
          <mxGeometry x="320" y="20" width="120" height="60" as="geometry" />
        </mxCell>
        <mxCell id="FpeiSymFSRnBGDmZxePF-3" value="MODELO" style="rounded=0;whiteSpace=wrap;html=1;" vertex="1" parent="1">
          <mxGeometry x="520" y="20" width="120" height="60" as="geometry" />
        </mxCell>
        <mxCell id="FpeiSymFSRnBGDmZxePF-4" style="edgeStyle=orthogonalEdgeStyle;rounded=0;orthogonalLoop=1;jettySize=auto;html=1;exitX=0.5;exitY=1;exitDx=0;exitDy=0;entryX=0.5;entryY=0;entryDx=0;entryDy=0;" edge="1" parent="1" source="FpeiSymFSRnBGDmZxePF-5" target="FpeiSymFSRnBGDmZxePF-13">
          <mxGeometry relative="1" as="geometry" />
        </mxCell>
        <mxCell id="FpeiSymFSRnBGDmZxePF-5" value="comprobar prestamos asociados" style="rounded=1;whiteSpace=wrap;html=1;" vertex="1" parent="1">
          <mxGeometry x="320" y="600" width="120" height="40" as="geometry" />
        </mxCell>
        <mxCell id="FpeiSymFSRnBGDmZxePF-6" style="edgeStyle=orthogonalEdgeStyle;rounded=0;orthogonalLoop=1;jettySize=auto;html=1;exitX=0.5;exitY=1;exitDx=0;exitDy=0;entryX=0.5;entryY=0;entryDx=0;entryDy=0;" edge="1" parent="1" source="FpeiSymFSRnBGDmZxePF-7" target="FpeiSymFSRnBGDmZxePF-10">
          <mxGeometry relative="1" as="geometry" />
        </mxCell>
        <mxCell id="FpeiSymFSRnBGDmZxePF-7" value="informar existencia de prestamos asociados" style="rounded=1;whiteSpace=wrap;html=1;" vertex="1" parent="1">
          <mxGeometry x="120" y="680" width="120" height="40" as="geometry" />
        </mxCell>
        <mxCell id="FpeiSymFSRnBGDmZxePF-8" style="edgeStyle=orthogonalEdgeStyle;rounded=0;orthogonalLoop=1;jettySize=auto;html=1;exitX=1;exitY=0.5;exitDx=0;exitDy=0;" edge="1" parent="1" source="FpeiSymFSRnBGDmZxePF-9" target="FpeiSymFSRnBGDmZxePF-15">
          <mxGeometry relative="1" as="geometry" />
        </mxCell>
        <mxCell id="FpeiSymFSRnBGDmZxePF-9" value="baja prestatario" style="rounded=1;whiteSpace=wrap;html=1;" vertex="1" parent="1">
          <mxGeometry x="320" y="760" width="120" height="40" as="geometry" />
        </mxCell>
        <mxCell id="FpeiSymFSRnBGDmZxePF-10" value="" style="ellipse;whiteSpace=wrap;html=1;aspect=fixed;fillStyle=solid;fillColor=light-dark(#FFFFFF,#121212);" vertex="1" parent="1">
          <mxGeometry x="170" y="850" width="20" height="20" as="geometry" />
        </mxCell>
        <mxCell id="FpeiSymFSRnBGDmZxePF-11" style="edgeStyle=orthogonalEdgeStyle;rounded=0;orthogonalLoop=1;jettySize=auto;html=1;exitX=0.5;exitY=1;exitDx=0;exitDy=0;entryX=0.5;entryY=0;entryDx=0;entryDy=0;" edge="1" parent="1" source="FpeiSymFSRnBGDmZxePF-13" target="FpeiSymFSRnBGDmZxePF-9">
          <mxGeometry relative="1" as="geometry" />
        </mxCell>
        <mxCell id="FpeiSymFSRnBGDmZxePF-12" style="edgeStyle=orthogonalEdgeStyle;rounded=0;orthogonalLoop=1;jettySize=auto;html=1;exitX=0;exitY=0.5;exitDx=0;exitDy=0;" edge="1" parent="1" source="FpeiSymFSRnBGDmZxePF-13" target="FpeiSymFSRnBGDmZxePF-7">
          <mxGeometry relative="1" as="geometry" />
        </mxCell>
        <mxCell id="FpeiSymFSRnBGDmZxePF-13" value="" style="rhombus;whiteSpace=wrap;html=1;" vertex="1" parent="1">
          <mxGeometry x="360" y="680" width="40" height="40" as="geometry" />
        </mxCell>
        <mxCell id="FpeiSymFSRnBGDmZxePF-14" style="edgeStyle=orthogonalEdgeStyle;rounded=0;orthogonalLoop=1;jettySize=auto;html=1;exitX=0.5;exitY=1;exitDx=0;exitDy=0;entryX=1;entryY=0.5;entryDx=0;entryDy=0;" edge="1" parent="1" source="FpeiSymFSRnBGDmZxePF-15" target="FpeiSymFSRnBGDmZxePF-10">
          <mxGeometry relative="1" as="geometry" />
        </mxCell>
        <mxCell id="FpeiSymFSRnBGDmZxePF-15" value="modificar tabla prestatarios" style="rounded=1;whiteSpace=wrap;html=1;" vertex="1" parent="1">
          <mxGeometry x="520" y="760" width="120" height="40" as="geometry" />
        </mxCell>
        <mxCell id="FpeiSymFSRnBGDmZxePF-16" style="edgeStyle=orthogonalEdgeStyle;rounded=0;orthogonalLoop=1;jettySize=auto;html=1;exitX=1;exitY=0.5;exitDx=0;exitDy=0;entryX=0;entryY=0.5;entryDx=0;entryDy=0;" edge="1" parent="1" source="FpeiSymFSRnBGDmZxePF-17" target="FpeiSymFSRnBGDmZxePF-5">
          <mxGeometry relative="1" as="geometry" />
        </mxCell>
        <mxCell id="FpeiSymFSRnBGDmZxePF-17" value="baja prestatario" style="rounded=1;whiteSpace=wrap;html=1;" vertex="1" parent="1">
          <mxGeometry x="120" y="600" width="120" height="40" as="geometry" />
        </mxCell>
        <mxCell id="FpeiSymFSRnBGDmZxePF-18" style="edgeStyle=orthogonalEdgeStyle;rounded=0;orthogonalLoop=1;jettySize=auto;html=1;exitX=0.5;exitY=1;exitDx=0;exitDy=0;entryX=0.5;entryY=0;entryDx=0;entryDy=0;" edge="1" parent="1" source="FpeiSymFSRnBGDmZxePF-19" target="FpeiSymFSRnBGDmZxePF-21">
          <mxGeometry relative="1" as="geometry" />
        </mxCell>
        <mxCell id="FpeiSymFSRnBGDmZxePF-19" value="vista prestatarios" style="rounded=1;whiteSpace=wrap;html=1;" vertex="1" parent="1">
          <mxGeometry x="120" y="120" width="120" height="40" as="geometry" />
        </mxCell>
        <mxCell id="FpeiSymFSRnBGDmZxePF-20" style="edgeStyle=orthogonalEdgeStyle;rounded=0;orthogonalLoop=1;jettySize=auto;html=1;exitX=1;exitY=0.5;exitDx=0;exitDy=0;entryX=0;entryY=0.5;entryDx=0;entryDy=0;" edge="1" parent="1" source="FpeiSymFSRnBGDmZxePF-21" target="FpeiSymFSRnBGDmZxePF-23">
          <mxGeometry relative="1" as="geometry" />
        </mxCell>
        <mxCell id="FpeiSymFSRnBGDmZxePF-21" value="listar prestatarios" style="rounded=1;whiteSpace=wrap;html=1;" vertex="1" parent="1">
          <mxGeometry x="120" y="200" width="120" height="40" as="geometry" />
        </mxCell>
        <mxCell id="FpeiSymFSRnBGDmZxePF-22" style="edgeStyle=orthogonalEdgeStyle;rounded=0;orthogonalLoop=1;jettySize=auto;html=1;exitX=1;exitY=0.5;exitDx=0;exitDy=0;entryX=0;entryY=0.5;entryDx=0;entryDy=0;" edge="1" parent="1" source="FpeiSymFSRnBGDmZxePF-23" target="FpeiSymFSRnBGDmZxePF-25">
          <mxGeometry relative="1" as="geometry" />
        </mxCell>
        <mxCell id="FpeiSymFSRnBGDmZxePF-23" value="recuperar lista prestatarios" style="rounded=1;whiteSpace=wrap;html=1;" vertex="1" parent="1">
          <mxGeometry x="320" y="200" width="120" height="40" as="geometry" />
        </mxCell>
        <mxCell id="FpeiSymFSRnBGDmZxePF-24" style="edgeStyle=orthogonalEdgeStyle;rounded=0;orthogonalLoop=1;jettySize=auto;html=1;exitX=0.5;exitY=1;exitDx=0;exitDy=0;entryX=1;entryY=0.5;entryDx=0;entryDy=0;" edge="1" parent="1" source="FpeiSymFSRnBGDmZxePF-25" target="FpeiSymFSRnBGDmZxePF-30">
          <mxGeometry relative="1" as="geometry" />
        </mxCell>
        <mxCell id="FpeiSymFSRnBGDmZxePF-25" value="recuperar prestatarios" style="rounded=1;whiteSpace=wrap;html=1;" vertex="1" parent="1">
          <mxGeometry x="520" y="200" width="120" height="40" as="geometry" />
        </mxCell>
        <mxCell id="FpeiSymFSRnBGDmZxePF-26" style="edgeStyle=orthogonalEdgeStyle;rounded=0;orthogonalLoop=1;jettySize=auto;html=1;exitX=0;exitY=0.5;exitDx=0;exitDy=0;entryX=1;entryY=0.5;entryDx=0;entryDy=0;" edge="1" parent="1" source="FpeiSymFSRnBGDmZxePF-28" target="FpeiSymFSRnBGDmZxePF-32">
          <mxGeometry relative="1" as="geometry" />
        </mxCell>
        <mxCell id="FpeiSymFSRnBGDmZxePF-27" style="edgeStyle=orthogonalEdgeStyle;rounded=0;orthogonalLoop=1;jettySize=auto;html=1;exitX=0.5;exitY=1;exitDx=0;exitDy=0;entryX=1;entryY=0.5;entryDx=0;entryDy=0;" edge="1" parent="1" source="FpeiSymFSRnBGDmZxePF-28" target="FpeiSymFSRnBGDmZxePF-34">
          <mxGeometry relative="1" as="geometry" />
        </mxCell>
        <mxCell id="FpeiSymFSRnBGDmZxePF-28" value="" style="rhombus;whiteSpace=wrap;html=1;" vertex="1" parent="1">
          <mxGeometry x="360" y="360" width="40" height="40" as="geometry" />
        </mxCell>
        <mxCell id="FpeiSymFSRnBGDmZxePF-29" style="edgeStyle=orthogonalEdgeStyle;rounded=0;orthogonalLoop=1;jettySize=auto;html=1;exitX=0.5;exitY=1;exitDx=0;exitDy=0;entryX=0.5;entryY=0;entryDx=0;entryDy=0;" edge="1" parent="1" source="FpeiSymFSRnBGDmZxePF-30" target="FpeiSymFSRnBGDmZxePF-28">
          <mxGeometry relative="1" as="geometry" />
        </mxCell>
        <mxCell id="FpeiSymFSRnBGDmZxePF-30" value="comprobar lista" style="rounded=1;whiteSpace=wrap;html=1;" vertex="1" parent="1">
          <mxGeometry x="320" y="280" width="120" height="40" as="geometry" />
        </mxCell>
        <mxCell id="FpeiSymFSRnBGDmZxePF-31" style="edgeStyle=orthogonalEdgeStyle;rounded=0;orthogonalLoop=1;jettySize=auto;html=1;exitX=0;exitY=0.5;exitDx=0;exitDy=0;entryX=0;entryY=0.5;entryDx=0;entryDy=0;" edge="1" parent="1" source="FpeiSymFSRnBGDmZxePF-32" target="FpeiSymFSRnBGDmZxePF-10">
          <mxGeometry relative="1" as="geometry" />
        </mxCell>
        <mxCell id="FpeiSymFSRnBGDmZxePF-32" value="informar lista vacia" style="rounded=1;whiteSpace=wrap;html=1;" vertex="1" parent="1">
          <mxGeometry x="120" y="360" width="120" height="40" as="geometry" />
        </mxCell>
        <mxCell id="FpeiSymFSRnBGDmZxePF-33" style="edgeStyle=orthogonalEdgeStyle;rounded=0;orthogonalLoop=1;jettySize=auto;html=1;exitX=0.5;exitY=1;exitDx=0;exitDy=0;entryX=0.5;entryY=0;entryDx=0;entryDy=0;" edge="1" parent="1" source="FpeiSymFSRnBGDmZxePF-34" target="FpeiSymFSRnBGDmZxePF-36">
          <mxGeometry relative="1" as="geometry" />
        </mxCell>
        <mxCell id="FpeiSymFSRnBGDmZxePF-34" value="mostrar lista" style="rounded=1;whiteSpace=wrap;html=1;" vertex="1" parent="1">
          <mxGeometry x="120" y="440" width="120" height="40" as="geometry" />
        </mxCell>
        <mxCell id="FpeiSymFSRnBGDmZxePF-35" style="edgeStyle=orthogonalEdgeStyle;rounded=0;orthogonalLoop=1;jettySize=auto;html=1;exitX=0.5;exitY=1;exitDx=0;exitDy=0;" edge="1" parent="1" source="FpeiSymFSRnBGDmZxePF-36" target="FpeiSymFSRnBGDmZxePF-17">
          <mxGeometry relative="1" as="geometry" />
        </mxCell>
        <mxCell id="FpeiSymFSRnBGDmZxePF-36" value="seleccionar prestatario" style="rounded=1;whiteSpace=wrap;html=1;" vertex="1" parent="1">
          <mxGeometry x="120" y="520" width="120" height="40" as="geometry" />
        </mxCell>
      </root>
    </mxGraphModel>
  </diagram>
</mxfile>
